<svg width="16" height="20" viewBox="0 0 16 20" fill="none" xmlns="http://www.w3.org/2000/svg">
<path d="M11.7282 3.62011C11.809 3.83997 12.0103 4 12.2446 4C12.5691 4 12.8133 3.70133 12.7091 3.39396C12.0401 1.42037 10.1722 0 7.97263 0C5.77301 0 3.90513 1.42037 3.23615 3.39396C3.13196 3.70133 3.37612 4 3.70068 4C3.93492 4 4.13621 3.83997 4.21702 3.62011C4.77906 2.09089 6.24845 1 7.97263 1C9.6968 1 11.1662 2.09089 11.7282 3.62011Z" fill="white"/>
<path d="M0 6H16V20H0V6ZM1 7V19H15V7H1Z" fill="white"/>
</svg>
