<svg width="30" height="20" viewBox="0 0 30 20" fill="none" xmlns="http://www.w3.org/2000/svg">
<path d="M20.1444 19.917C20.0835 19.9696 20.0063 19.9985 19.9266 19.9985H19.8962C19.84 19.9985 19.7855 19.9792 19.7414 19.9437C19.5466 19.7834 19.1815 19.2833 18.7597 18.6947C18.6405 18.5285 18.5373 18.3846 18.4672 18.292L15.4151 14.259C15.312 14.1242 15.2102 13.9882 15.1101 13.8551C15.0851 13.8216 15.0593 13.7884 15.0337 13.7552L14.9986 13.7098L12.7443 16.6838C12.4768 17.0366 12.2054 17.396 11.9429 17.7434C11.8023 17.9293 11.6617 18.1152 11.521 18.3013L11.0643 18.9055C11.0449 18.9309 11.0262 18.9561 11.0077 18.981C10.9763 19.0232 10.9439 19.0667 10.9106 19.1084L10.455 19.7111C10.4478 19.7204 10.441 19.7296 10.4341 19.7385C10.3831 19.8065 10.3309 19.8766 10.2562 19.9409C10.2121 19.9791 10.1561 20 10.0983 20H10.037C9.98102 20 9.92677 19.9804 9.8833 19.9444C9.8058 19.8804 9.75703 19.8139 9.70973 19.7497C9.69912 19.7346 9.68822 19.7195 9.67658 19.7044L0.0540286 6.99021C0.0266435 6.95403 0.00907466 6.91112 0.00309021 6.8658C-0.0203373 6.67336 0.094443 6.53531 0.178428 6.43441C0.198467 6.41024 0.217327 6.38759 0.231914 6.36719C0.379257 6.16162 0.535293 5.95937 0.686024 5.76301C0.750708 5.67888 0.817601 5.59203 0.882726 5.50623L3.46122 2.10422C3.59373 1.92961 3.726 1.7551 3.85802 1.5807C4.01243 1.37688 4.16695 1.17317 4.32156 0.969564C4.38049 0.892229 4.43943 0.814843 4.49837 0.737407C4.58284 0.62664 4.66708 0.51547 4.75106 0.403897C4.87483 0.23971 4.99359 0.241069 5.09835 0.242277H9.91645C10.0735 0.242277 10.4145 0.237898 10.8462 0.232309C11.5629 0.223095 12.5443 0.210558 13.3677 0.20935C14.8549 0.207235 14.959 0.243939 15.0151 0.263726C15.0955 0.292576 15.1845 0.377615 15.5292 0.830602C15.5492 0.857035 15.5653 0.878181 15.576 0.891926C15.7583 1.12726 15.9469 1.3641 16.1292 1.59308C16.2376 1.72902 16.3502 1.8704 16.4596 2.00967L17.7792 3.68205C17.8259 3.74136 17.8725 3.80087 17.9189 3.86058C18.0157 3.98474 18.1158 4.11298 18.2163 4.23609C18.3098 4.35073 18.4019 4.4687 18.4908 4.58349C18.5456 4.65373 18.6022 4.72638 18.658 4.79692L19.7925 6.23065L24.4076 0.120907C24.4652 0.0446599 24.5542 0 24.6485 0H24.6711C24.7311 0 24.7889 0.0224664 24.8337 0.0631371C24.8769 0.0986506 24.9161 0.13892 24.9507 0.183219L25.1943 0.494978C25.3594 0.718375 25.5358 0.940715 25.7063 1.15565C25.8513 1.33827 26.001 1.52708 26.1445 1.71724C26.4113 2.07009 26.6896 2.42444 26.9588 2.76701C27.1069 2.95537 27.2599 3.15022 27.4096 3.3428L29.9303 6.58789C29.9754 6.64598 30 6.71794 30 6.79209V6.82222C30 6.88216 29.9787 6.94008 29.9402 6.98527C29.9094 7.02213 29.8801 7.06291 29.8488 7.10611C29.8304 7.13179 29.8114 7.15822 29.7917 7.18435L27.5008 10.2103C27.005 10.8648 26.5097 11.5193 26.0148 12.1739C25.6946 12.5974 25.3743 13.0209 25.054 13.4443L20.774 19.1019C20.7095 19.1871 20.6442 19.2756 20.5811 19.3612C20.4563 19.5307 20.3272 19.7061 20.1873 19.8767L20.178 19.8881L20.1444 19.917ZM0.762937 6.80538C0.847659 6.92622 0.961702 7.0682 1.06499 7.19674C1.13468 7.28344 1.2004 7.36515 1.25344 7.43569C1.35648 7.57214 1.46001 7.70888 1.56404 7.84593C1.6607 7.97331 1.75725 8.10075 1.85371 8.22823C2.03524 8.469 2.21696 8.70941 2.39888 8.94948C2.61356 9.23299 2.83575 9.52602 3.05338 9.81512C4.03056 11.1141 5.0291 12.4305 5.99478 13.7038C6.80222 14.7685 7.63721 15.8693 8.4554 16.9545L8.59494 17.1398C8.74464 17.3387 8.89964 17.5444 9.05494 17.744L9.05612 17.7455L10.0664 19.0774L14.5687 13.1371C14.5572 13.122 14.5468 13.1097 14.5383 13.0983L10.8076 8.17008C10.6995 8.02719 10.5915 7.88445 10.4834 7.74186C10.432 7.67369 10.3806 7.60587 10.3293 7.5384C10.2802 7.47396 10.2313 7.40931 10.1827 7.34446L9.84871 6.89377C9.81019 6.8418 9.80671 6.77106 9.83993 6.71541L9.87151 6.66249C9.90541 6.60827 9.94282 6.55644 9.98349 6.50736C9.99926 6.48758 10.0141 6.46885 10.0277 6.45027L10.7134 5.54399C10.8222 5.4007 10.9308 5.25731 11.0394 5.11381L13.3515 2.0654C13.4674 1.91224 13.596 1.75123 13.7323 1.5807C13.9024 1.36772 14.0764 1.14976 14.2311 0.939808L5.20841 0.937089L2.9688 3.89019C2.69042 4.25673 2.41244 4.62362 2.13484 4.99086L1.81364 5.415L0.762937 6.80538ZM15.4235 13.1291L15.6185 13.3875C16.1342 14.0699 16.6596 14.7631 17.1679 15.4333C17.9403 16.4516 18.7387 17.5047 19.5201 18.5448C19.5496 18.5845 19.579 18.6246 19.6095 18.6645C19.677 18.7551 19.7467 18.8484 19.817 18.9384C19.8516 18.9838 19.8858 19.0277 19.9201 19.0735C20.0542 18.8912 20.2285 18.6696 20.3563 18.5072C20.419 18.4275 20.4733 18.3586 20.5023 18.3202C21.0715 17.565 21.6446 16.8079 22.1378 16.1575C22.4399 15.7589 22.7422 15.3605 23.0447 14.9623C23.5352 14.3161 24.0425 13.6482 24.5401 12.9901L28.7421 7.43781C28.7922 7.37165 28.8534 7.29537 28.9182 7.21441C29.0252 7.08104 29.1432 6.93362 29.231 6.80825L27.9727 5.18556C27.9418 5.14523 27.911 5.10581 27.88 5.06639L27.8177 4.98648L26.599 3.41802C26.4342 3.20656 26.2671 2.9898 26.1054 2.78076C25.7698 2.34665 25.4228 1.89759 25.0764 1.46046C24.9657 1.32135 24.8661 1.19538 24.7686 1.06608L24.6518 0.915792L24.5099 1.10671C24.2299 1.48342 23.9407 1.87312 23.647 2.24953C23.5834 2.33094 23.52 2.41568 23.4587 2.4986C23.4242 2.54497 23.3898 2.5915 23.3556 2.63757L22.4639 3.82509C22.1509 4.24167 21.8319 4.66475 21.5234 5.07394C21.0511 5.70033 20.5627 6.34816 20.0849 6.98724C19.3087 8.02492 18.5115 9.07333 17.7408 10.0872C17.141 10.8761 16.5208 11.6917 15.9137 12.4971C15.8628 12.5648 15.7993 12.6442 15.7319 12.7283C15.6248 12.8601 15.508 13.006 15.4222 13.1291H15.4235ZM10.6221 6.80024C10.7425 6.97485 10.8973 7.17136 11.0367 7.34809C11.1174 7.4505 11.1938 7.54716 11.261 7.63643C11.7951 8.34484 12.3366 9.05823 12.8022 9.67132C13.0426 9.98822 13.2833 10.3049 13.5241 10.6214C14.0114 11.2623 14.5149 11.9243 15.0071 12.5794C15.0788 12.4855 15.1545 12.3794 15.224 12.2812C15.283 12.1973 15.34 12.1181 15.3888 12.0536L18.9002 7.4147C18.9402 7.36319 18.9886 7.30322 19.0389 7.23994C19.1476 7.10399 19.2773 6.94192 19.3719 6.80674L18.8909 6.19832C18.6257 5.87191 18.3629 5.53553 18.1086 5.21018C17.974 5.03814 17.8351 4.86021 17.6976 4.68635C17.5979 4.55993 17.4952 4.43199 17.396 4.30874C17.199 4.06299 16.9952 3.80908 16.8024 3.55351L16.2092 2.801C15.9854 2.52534 15.764 2.24077 15.55 1.96571C15.341 1.69715 15.1255 1.42013 14.9078 1.15157L12.8038 3.92402C12.6606 4.11293 12.5172 4.30184 12.3738 4.49075C12.1365 4.80291 11.8992 5.11583 11.662 5.4295L10.8026 6.5634C10.7715 6.60479 10.7394 6.64618 10.7081 6.6862C10.6769 6.72623 10.649 6.76293 10.6208 6.79964L10.6221 6.80024Z" fill="black"/>
</svg>
