<svg width="22" height="21" viewBox="0 0 22 21" fill="none" xmlns="http://www.w3.org/2000/svg">
<path d="M10.7208 0.115762C10.8752 -0.0385873 11.1248 -0.0385872 11.2792 0.115762L21.8466 10.6801C22.0511 10.8846 22.0511 11.2162 21.8466 11.4207C21.642 11.6252 21.3104 11.6252 21.1058 11.4207L11 1.31776L0.894199 11.4207C0.689639 11.6252 0.357981 11.6252 0.15342 11.4207C-0.0511401 11.2162 -0.0511401 10.8846 0.15342 10.6801L10.7208 0.115762ZM18.3333 10.5268C18.6226 10.5268 18.8571 10.7612 18.8571 11.0504V20.6028C18.8571 20.8222 18.68 21 18.4615 21H3.53854C3.32001 21 3.14286 20.8222 3.14286 20.6028V11.0504C3.14286 10.7612 3.37737 10.5268 3.66667 10.5268C3.95596 10.5268 4.19048 10.7612 4.19048 11.0504V19.9527H17.8095V11.0504C17.8095 10.7612 18.044 10.5268 18.3333 10.5268Z" fill="black"/>
</svg>
