<svg width="20" height="19" viewBox="0 0 20 19" fill="none" xmlns="http://www.w3.org/2000/svg">
<path d="M13.249 8.02998C13.058 8.24867 13.0651 8.58942 13.2923 8.77051C13.475 8.91615 13.7392 8.90688 13.8964 8.7342C14.7407 7.80676 15.2551 6.57574 15.2551 5.225C15.2551 2.33931 12.9073 0 10.0112 0C7.11501 0 4.76721 2.33931 4.76721 5.225C4.76721 7.15282 5.81505 8.83678 7.37419 9.74232C3.29284 10.6791 0.212964 14.2265 0.000556515 18.5251C-0.0123907 18.7871 0.202285 19 0.465571 19C0.728857 19 0.940915 18.787 0.955309 18.525C1.20266 14.0239 4.94409 10.45 9.52328 10.45H10.4767C15.0559 10.45 18.7973 14.0239 19.0447 18.525C19.0591 18.787 19.2711 19 19.5344 19C19.7977 19 20.0124 18.7871 19.9994 18.5251C19.7511 13.499 15.5826 9.5 10.4767 9.5H10.2502C10.2129 9.48886 10.174 9.4819 10.1341 9.47959L9.21537 9.42661C8.92638 9.3726 8.6476 9.28973 8.38216 9.1811C6.82042 8.54199 5.72066 7.01146 5.72066 5.225C5.72066 2.86398 7.64158 0.95 10.0112 0.95C12.3807 0.95 14.3016 2.86398 14.3016 5.225C14.3016 6.29832 13.9047 7.27925 13.249 8.02998Z" fill="white"/>
</svg>
